<mxfile host="app.diagrams.net" modified="2023-03-10T13:16:12.779Z" agent="5.0 (Windows)" etag="wzmFNrgi8SR9VdmtypyG" version="21.0.6" type="github">
  <diagram name="Page-1" id="1dfW-qXmuLCjnLHf31g0">
    <mxGraphModel dx="1900" dy="1638" grid="1" gridSize="10" guides="1" tooltips="1" connect="1" arrows="1" fold="1" page="1" pageScale="1" pageWidth="850" pageHeight="1100" math="0" shadow="0">
      <root>
        <mxCell id="0" />
        <mxCell id="1" parent="0" />
        <mxCell id="2" value="root node" style="rounded=1;absoluteArcSize=1;arcSize=14;whiteSpace=wrap;strokeWidth=2;" parent="1" vertex="1">
          <mxGeometry x="90.00332977294921" y="-10" width="84.53333282470703" height="33.400001525878906" as="geometry" />
        </mxCell>
        <mxCell id="3" value="left child node" style="rounded=1;absoluteArcSize=1;arcSize=14;whiteSpace=wrap;strokeWidth=2;" parent="1" vertex="1">
          <mxGeometry y="83.48333358764648" width="120.19999694824219" height="33.400001525878906" as="geometry" />
        </mxCell>
        <mxCell id="4" value="right child node" style="rounded=1;absoluteArcSize=1;arcSize=14;whiteSpace=wrap;strokeWidth=2;" parent="1" vertex="1">
          <mxGeometry x="170.1999969482422" y="83.4000015258789" width="128.39999389648438" height="33.56666564941406" as="geometry" />
        </mxCell>
        <mxCell id="5" value="" style="curved=1;startArrow=none;endArrow=block;exitX=0.08712383110661664;exitY=1;entryX=0.5;entryY=0;" parent="1" source="2" target="3" edge="1">
          <mxGeometry relative="1" as="geometry">
            <Array as="points">
              <mxPoint x="60.099998474121094" y="58.400001525878906" />
            </Array>
          </mxGeometry>
        </mxCell>
        <mxCell id="6" value="" style="curved=1;startArrow=none;endArrow=block;exitX=0.9128761688933834;exitY=1;entryX=0.5;entryY=0;" parent="1" source="2" target="4" edge="1">
          <mxGeometry relative="1" as="geometry">
            <Array as="points">
              <mxPoint x="234.39999389648438" y="58.400001525878906" />
            </Array>
          </mxGeometry>
        </mxCell>
      </root>
    </mxGraphModel>
  </diagram>
</mxfile>
